<?xml version="1.0" encoding="UTF-8"?>
<svg xmlns="http://www.w3.org/2000/svg" width="570" height="583" viewBox="0 0 570 583" role="img" aria-label="Drilling and completion management platform logo">
  <defs>
    <linearGradient id="blue" x1="0" y1="0" x2="1" y2="1">
      <stop offset="0" stop-color="#0A438B"/>
      <stop offset="0.55" stop-color="#0B539E"/>
      <stop offset="1" stop-color="#1267B2"/>
    </linearGradient>
    <linearGradient id="teal" x1="0" y1="0" x2="1" y2="1">
      <stop offset="0" stop-color="#00A0A1"/>
      <stop offset="0.55" stop-color="#08A5A6"/>
      <stop offset="1" stop-color="#0B9297"/>
    </linearGradient>
  </defs>
  <path d="M 20.0,212.0 L 20.0,215.0 L 19.0,216.0 L 19.0,219.0 L 16.0,228.0 L 16.0,232.0 L 15.0,233.0 L 13.0,250.0 L 12.0,251.0 L 11.0,273.0 L 10.0,274.0 L 10.0,295.0 L 11.0,296.0 L 12.0,320.0 L 13.0,321.0 L 13.0,326.0 L 14.0,327.0 L 14.0,333.0 L 15.0,334.0 L 15.0,339.0 L 16.0,340.0 L 17.0,349.0 L 18.0,350.0 L 18.0,353.0 L 20.0,359.0 L 265.0,358.0 L 265.0,310.0 L 266.0,309.0 L 308.0,309.0 L 310.0,311.0 L 310.0,358.0 L 311.0,357.0 L 550.0,357.0 L 551.0,356.0 L 551.0,353.0 L 553.0,348.0 L 553.0,344.0 L 554.0,343.0 L 554.0,339.0 L 555.0,338.0 L 556.0,327.0 L 557.0,326.0 L 558.0,307.0 L 559.0,306.0 L 559.0,265.0 L 558.0,264.0 L 558.0,254.0 L 557.0,253.0 L 557.0,248.0 L 556.0,247.0 L 556.0,242.0 L 555.0,241.0 L 555.0,236.0 L 554.0,235.0 L 553.0,226.0 L 552.0,225.0 L 552.0,222.0 L 551.0,221.0 L 551.0,218.0 L 549.0,214.0 L 549.0,211.0 L 547.0,207.0 L 546.0,201.0 L 544.0,198.0 L 541.0,187.0 L 536.0,177.0 L 536.0,175.0 L 520.0,144.0 L 507.0,124.0 L 493.0,106.0 L 470.0,82.0 L 450.0,65.0 L 418.0,44.0 L 394.0,32.0 L 392.0,32.0 L 382.0,27.0 L 364.0,21.0 L 361.0,21.0 L 357.0,19.0 L 354.0,19.0 L 345.0,16.0 L 341.0,16.0 L 340.0,15.0 L 336.0,15.0 L 335.0,14.0 L 331.0,14.0 L 330.0,13.0 L 315.0,12.0 L 314.0,11.0 L 302.0,11.0 L 301.0,10.0 L 274.0,10.0 L 273.0,11.0 L 254.0,12.0 L 253.0,13.0 L 248.0,13.0 L 247.0,14.0 L 242.0,14.0 L 241.0,15.0 L 232.0,16.0 L 227.0,18.0 L 223.0,18.0 L 205.0,24.0 L 199.0,25.0 L 196.0,27.0 L 188.0,29.0 L 178.0,34.0 L 176.0,34.0 L 169.0,38.0 L 167.0,38.0 L 146.0,49.0 L 127.0,61.0 L 104.0,79.0 L 79.0,104.0 L 65.0,121.0 L 52.0,140.0 L 51.0,143.0 L 46.0,150.0 L 41.0,161.0 L 39.0,163.0 L 39.0,165.0 L 37.0,167.0 L 37.0,169.0 L 32.0,178.0 L 29.0,188.0 L 25.0,196.0 L 23.0,202.0 L 23.0,205.0 Z M 291.0,267.0 L 293.0,266.0 L 321.0,291.0 L 320.0,292.0 L 293.0,292.0 L 292.0,291.0 L 292.0,270.0 Z M 283.0,265.0 L 283.0,291.0 L 282.0,292.0 L 253.0,292.0 L 252.0,291.0 L 282.0,264.0 Z M 317.0,234.0 L 318.0,235.0 L 320.0,254.0 L 321.0,255.0 L 321.0,261.0 L 322.0,262.0 L 322.0,268.0 L 323.0,269.0 L 323.0,275.0 L 324.0,276.0 L 324.0,283.0 L 323.0,284.0 L 292.0,257.0 L 292.0,256.0 L 300.0,248.0 Z M 255.0,234.0 L 268.0,244.0 L 281.0,256.0 L 249.0,285.0 L 248.0,284.0 L 248.0,277.0 L 249.0,276.0 L 249.0,271.0 L 250.0,270.0 L 250.0,264.0 L 251.0,263.0 L 251.0,257.0 L 252.0,256.0 L 252.0,249.0 L 253.0,248.0 L 253.0,242.0 L 254.0,241.0 L 254.0,235.0 Z M 292.0,207.0 L 300.0,213.0 L 314.0,227.0 L 313.0,229.0 L 293.0,246.0 L 292.0,245.0 L 292.0,222.0 L 291.0,221.0 L 291.0,208.0 Z M 282.0,205.0 L 283.0,206.0 L 283.0,247.0 L 281.0,248.0 L 258.0,227.0 Z M 308.0,181.0 L 311.0,183.0 L 312.0,197.0 L 313.0,198.0 L 313.0,204.0 L 314.0,205.0 L 314.0,211.0 L 315.0,212.0 L 315.0,217.0 L 314.0,218.0 L 291.0,197.0 Z M 264.0,181.0 L 279.0,195.0 L 280.0,195.0 L 281.0,198.0 L 258.0,219.0 L 257.0,216.0 L 258.0,215.0 L 258.0,208.0 L 259.0,207.0 L 260.0,195.0 L 261.0,194.0 L 261.0,189.0 L 262.0,188.0 L 262.0,182.0 Z M 292.0,155.0 L 308.0,172.0 L 308.0,173.0 L 293.0,187.0 L 292.0,186.0 L 292.0,171.0 L 291.0,170.0 L 291.0,159.0 L 292.0,158.0 L 291.0,156.0 Z M 281.0,155.0 L 283.0,156.0 L 283.0,188.0 L 282.0,189.0 L 265.0,173.0 L 265.0,172.0 Z M 303.0,133.0 L 304.0,134.0 L 305.0,144.0 L 306.0,145.0 L 306.0,152.0 L 307.0,153.0 L 307.0,159.0 L 308.0,160.0 L 307.0,163.0 L 291.0,146.0 L 291.0,145.0 Z M 271.0,133.0 L 283.0,146.0 L 267.0,163.0 L 266.0,162.0 L 266.0,157.0 L 267.0,156.0 L 269.0,137.0 Z M 301.0,124.0 L 302.0,126.0 L 298.0,131.0 L 292.0,136.0 L 291.0,135.0 L 292.0,134.0 L 291.0,131.0 L 291.0,125.0 L 292.0,124.0 Z M 273.0,124.0 L 282.0,124.0 L 283.0,125.0 L 283.0,137.0 L 282.0,138.0 L 271.0,126.0 Z M 298.0,93.0 L 299.0,94.0 L 299.0,100.0 L 300.0,101.0 L 301.0,114.0 L 302.0,115.0 L 300.0,117.0 L 298.0,116.0 L 296.0,118.0 L 292.0,118.0 L 291.0,117.0 L 291.0,114.0 L 292.0,113.0 L 292.0,108.0 L 291.0,107.0 L 292.0,99.0 L 296.0,94.0 Z M 276.0,91.0 L 283.0,99.0 L 283.0,117.0 L 282.0,118.0 L 273.0,117.0 L 272.0,116.0 L 273.0,114.0 L 273.0,106.0 L 274.0,105.0 L 275.0,92.0 Z M 291.0,91.0 L 292.0,88.0 L 295.0,88.0 L 296.0,89.0 L 293.0,93.0 Z M 279.0,89.0 L 282.0,88.0 L 283.0,89.0 L 283.0,92.0 L 282.0,93.0 Z M 38.0,230.0 L 39.0,229.0 L 40.0,222.0 L 42.0,218.0 L 42.0,215.0 L 47.0,200.0 L 54.0,185.0 L 54.0,183.0 L 64.0,163.0 L 83.0,134.0 L 92.0,123.0 L 105.0,110.0 L 105.0,109.0 L 120.0,95.0 L 135.0,83.0 L 153.0,71.0 L 184.0,55.0 L 186.0,55.0 L 196.0,50.0 L 220.0,42.0 L 223.0,42.0 L 232.0,39.0 L 236.0,39.0 L 241.0,37.0 L 251.0,36.0 L 252.0,35.0 L 267.0,34.0 L 268.0,33.0 L 308.0,33.0 L 309.0,34.0 L 318.0,34.0 L 319.0,35.0 L 325.0,35.0 L 326.0,36.0 L 331.0,36.0 L 332.0,37.0 L 341.0,38.0 L 342.0,39.0 L 353.0,41.0 L 363.0,45.0 L 366.0,45.0 L 369.0,47.0 L 374.0,48.0 L 384.0,53.0 L 386.0,53.0 L 406.0,63.0 L 430.0,78.0 L 450.0,94.0 L 475.0,119.0 L 495.0,145.0 L 496.0,148.0 L 507.0,165.0 L 518.0,188.0 L 518.0,190.0 L 520.0,193.0 L 521.0,198.0 L 523.0,201.0 L 527.0,213.0 L 527.0,216.0 L 529.0,220.0 L 529.0,223.0 L 531.0,228.0 L 531.0,232.0 L 533.0,237.0 L 533.0,242.0 L 534.0,243.0 L 535.0,254.0 L 536.0,255.0 L 536.0,265.0 L 537.0,266.0 L 537.0,307.0 L 536.0,308.0 L 536.0,318.0 L 535.0,319.0 L 535.0,325.0 L 533.0,331.0 L 532.0,341.0 L 530.0,346.0 L 415.0,346.0 L 414.0,345.0 L 414.0,308.0 L 374.0,308.0 L 373.0,309.0 L 373.0,321.0 L 374.0,322.0 L 373.0,323.0 L 373.0,329.0 L 372.0,330.0 L 362.0,330.0 L 361.0,329.0 L 361.0,295.0 L 337.0,295.0 L 336.0,294.0 L 335.0,281.0 L 334.0,280.0 L 334.0,274.0 L 333.0,273.0 L 333.0,268.0 L 332.0,267.0 L 332.0,261.0 L 331.0,260.0 L 331.0,254.0 L 330.0,253.0 L 330.0,247.0 L 329.0,246.0 L 329.0,240.0 L 328.0,239.0 L 328.0,233.0 L 327.0,232.0 L 327.0,226.0 L 326.0,225.0 L 326.0,219.0 L 325.0,218.0 L 325.0,212.0 L 324.0,211.0 L 324.0,204.0 L 323.0,203.0 L 323.0,198.0 L 322.0,197.0 L 322.0,190.0 L 321.0,189.0 L 321.0,183.0 L 320.0,182.0 L 320.0,176.0 L 319.0,175.0 L 319.0,169.0 L 318.0,168.0 L 318.0,162.0 L 317.0,161.0 L 317.0,155.0 L 316.0,154.0 L 316.0,148.0 L 315.0,147.0 L 315.0,140.0 L 314.0,139.0 L 314.0,133.0 L 313.0,132.0 L 313.0,126.0 L 312.0,125.0 L 312.0,118.0 L 311.0,117.0 L 311.0,111.0 L 310.0,110.0 L 310.0,104.0 L 309.0,103.0 L 309.0,97.0 L 308.0,96.0 L 307.0,82.0 L 308.0,81.0 L 311.0,81.0 L 311.0,70.0 L 308.0,70.0 L 307.0,69.0 L 298.0,69.0 L 297.0,68.0 L 297.0,58.0 L 296.0,57.0 L 297.0,55.0 L 294.0,54.0 L 292.0,50.0 L 282.0,50.0 L 282.0,53.0 L 277.0,55.0 L 277.0,67.0 L 278.0,68.0 L 277.0,69.0 L 263.0,69.0 L 263.0,81.0 L 265.0,81.0 L 267.0,83.0 L 267.0,87.0 L 266.0,88.0 L 266.0,93.0 L 265.0,94.0 L 265.0,100.0 L 264.0,101.0 L 264.0,108.0 L 263.0,109.0 L 262.0,121.0 L 260.0,127.0 L 260.0,134.0 L 259.0,135.0 L 258.0,147.0 L 257.0,148.0 L 257.0,153.0 L 256.0,154.0 L 256.0,160.0 L 255.0,161.0 L 254.0,174.0 L 253.0,175.0 L 252.0,187.0 L 251.0,188.0 L 251.0,193.0 L 250.0,194.0 L 250.0,199.0 L 249.0,200.0 L 249.0,206.0 L 248.0,207.0 L 248.0,212.0 L 247.0,213.0 L 247.0,218.0 L 246.0,219.0 L 246.0,226.0 L 245.0,227.0 L 245.0,232.0 L 244.0,233.0 L 244.0,238.0 L 243.0,239.0 L 242.0,253.0 L 241.0,254.0 L 241.0,260.0 L 240.0,261.0 L 240.0,266.0 L 239.0,267.0 L 239.0,273.0 L 238.0,274.0 L 236.0,294.0 L 235.0,295.0 L 206.0,295.0 L 206.0,329.0 L 205.0,330.0 L 155.0,330.0 L 155.0,346.0 L 154.0,347.0 L 40.0,347.0 L 39.0,346.0 L 37.0,333.0 L 36.0,332.0 L 36.0,328.0 L 35.0,327.0 L 34.0,312.0 L 33.0,311.0 L 33.0,298.0 L 32.0,297.0 L 33.0,261.0 L 34.0,260.0 L 34.0,253.0 L 35.0,252.0 L 35.0,246.0 L 36.0,245.0 L 36.0,240.0 L 37.0,239.0 Z" fill="url(#blue)" fill-rule="evenodd" clip-rule="evenodd"/>
  <path d="M 58.0,446.0 L 62.0,453.0 L 74.0,469.0 L 88.0,484.0 L 88.0,485.0 L 107.0,503.0 L 127.0,519.0 L 150.0,534.0 L 171.0,545.0 L 173.0,545.0 L 180.0,549.0 L 182.0,549.0 L 195.0,555.0 L 210.0,560.0 L 213.0,560.0 L 217.0,562.0 L 220.0,562.0 L 221.0,563.0 L 224.0,563.0 L 225.0,564.0 L 228.0,564.0 L 237.0,567.0 L 241.0,567.0 L 242.0,568.0 L 255.0,569.0 L 256.0,570.0 L 263.0,570.0 L 264.0,571.0 L 277.0,571.0 L 278.0,572.0 L 319.0,571.0 L 320.0,570.0 L 327.0,570.0 L 328.0,569.0 L 340.0,568.0 L 341.0,567.0 L 345.0,567.0 L 346.0,566.0 L 365.0,562.0 L 383.0,556.0 L 393.0,551.0 L 395.0,551.0 L 415.0,541.0 L 421.0,537.0 L 351.0,537.0 L 350.0,536.0 L 342.0,536.0 L 341.0,535.0 L 336.0,535.0 L 335.0,534.0 L 332.0,534.0 L 331.0,533.0 L 328.0,533.0 L 322.0,531.0 L 308.0,524.0 L 298.0,517.0 L 286.0,505.0 L 278.0,494.0 L 268.0,472.0 L 268.0,469.0 L 265.0,460.0 L 264.0,446.0 Z M 263.0,429.0 L 263.0,377.0 L 262.0,376.0 L 217.0,376.0 L 216.0,377.0 L 47.0,377.0 L 46.0,378.0 L 43.0,377.0 L 27.0,378.0 L 26.0,377.0 L 25.0,378.0 L 30.0,393.0 L 35.0,403.0 L 35.0,405.0 L 48.0,430.0 L 260.0,430.0 L 261.0,429.0 L 262.0,430.0 Z M 315.0,459.0 L 321.0,469.0 L 332.0,479.0 L 340.0,483.0 L 346.0,484.0 L 347.0,485.0 L 352.0,485.0 L 353.0,486.0 L 482.0,486.0 L 493.0,474.0 L 496.0,469.0 L 503.0,461.0 L 520.0,435.0 L 524.0,426.0 L 526.0,424.0 L 526.0,422.0 L 530.0,416.0 L 530.0,414.0 L 537.0,400.0 L 537.0,398.0 L 541.0,390.0 L 546.0,374.0 L 312.0,374.0 L 312.0,449.0 L 313.0,450.0 L 313.0,453.0 Z M 280.0,310.0 L 280.0,452.0 L 281.0,453.0 L 282.0,463.0 L 285.0,472.0 L 287.0,475.0 L 287.0,477.0 L 297.0,493.0 L 309.0,505.0 L 316.0,510.0 L 334.0,518.0 L 343.0,519.0 L 344.0,520.0 L 351.0,520.0 L 352.0,521.0 L 445.0,521.0 L 459.0,510.0 L 467.0,502.0 L 349.0,502.0 L 348.0,501.0 L 343.0,501.0 L 339.0,499.0 L 336.0,499.0 L 322.0,492.0 L 310.0,481.0 L 305.0,474.0 L 300.0,464.0 L 297.0,455.0 L 296.0,445.0 L 295.0,444.0 L 295.0,310.0 Z" fill="url(#teal)" fill-rule="evenodd" clip-rule="evenodd"/>
</svg>
